<svg width="198" height="197" viewBox="0 0 198 197" fill="none" xmlns="http://www.w3.org/2000/svg">
<path d="M154.278 194.1H43.682C21.682 194.1 3.68201 176.1 3.68201 154.1V43.5043C3.68201 21.5043 21.682 3.50429 43.682 3.50429H154.278C176.278 3.50429 194.278 21.5043 194.278 43.5043V154.1C194.278 176.1 176.278 194.1 154.278 194.1Z" fill="#F4989E"/>
<path d="M154.278 196.9H43.682C20.082 196.9 0.881989 177.7 0.881989 154.1V43.5043C0.881989 19.9043 20.082 0.704285 43.682 0.704285H154.274C177.874 0.704285 197.074 19.9043 197.074 43.5043V154.1C197.078 177.7 177.878 196.9 154.278 196.9ZM43.682 6.30429C23.17 6.30429 6.48199 22.9923 6.48199 43.5043V154.1C6.48199 174.612 23.17 191.3 43.682 191.3H154.274C174.786 191.3 191.474 174.612 191.474 154.1V43.5043C191.474 22.9923 174.786 6.30429 154.274 6.30429H43.682Z" fill="#472B29"/>
<path d="M149.39 181.984H48.57C30.498 181.984 15.798 167.284 15.798 149.212V48.3883C15.798 30.3163 30.502 15.6163 48.57 15.6163H150.41C151.238 15.6163 151.91 16.2883 151.91 17.1163C151.91 17.9443 151.238 18.6163 150.41 18.6163H48.57C32.154 18.6163 18.798 31.9723 18.798 48.3883V149.212C18.798 165.628 32.154 178.984 48.57 178.984H149.39C165.806 178.984 179.162 165.628 179.162 149.212V92.7523C179.162 91.9243 179.834 91.2523 180.662 91.2523C181.49 91.2523 182.162 91.9243 182.162 92.7523V149.212C182.162 167.284 167.462 181.984 149.39 181.984ZM180.662 85.1763C179.834 85.1763 179.162 84.5043 179.162 83.6763V71.5763C179.162 70.7483 179.834 70.0763 180.662 70.0763C181.49 70.0763 182.162 70.7483 182.162 71.5763V83.6763C182.162 84.5043 181.49 85.1763 180.662 85.1763ZM180.662 67.0243C179.834 67.0243 179.162 66.3523 179.162 65.5243V59.4723C179.162 58.6443 179.834 57.9723 180.662 57.9723C181.49 57.9723 182.162 58.6443 182.162 59.4723V65.5243C182.162 66.3523 181.49 67.0243 180.662 67.0243Z" fill="#472B29"/>
<path d="M130.894 193.508C130.786 193.508 130.67 193.48 130.574 193.416C130.294 193.24 130.21 192.868 130.386 192.588L138.238 180.164C138.414 179.884 138.79 179.8 139.066 179.976C139.346 180.152 139.43 180.524 139.254 180.804L131.402 193.228C131.29 193.412 131.094 193.508 130.894 193.508ZM126.894 193.508C126.786 193.508 126.67 193.48 126.574 193.416C126.294 193.24 126.21 192.868 126.386 192.588L134.238 180.164C134.414 179.884 134.79 179.8 135.066 179.976C135.346 180.152 135.43 180.524 135.254 180.804L127.402 193.228C127.29 193.412 127.094 193.508 126.894 193.508ZM122.894 193.508C122.786 193.508 122.67 193.48 122.574 193.416C122.294 193.24 122.21 192.868 122.386 192.588L130.238 180.164C130.414 179.884 130.79 179.8 131.066 179.976C131.346 180.152 131.43 180.524 131.254 180.804L123.402 193.228C123.29 193.412 123.094 193.508 122.894 193.508ZM118.894 193.508C118.786 193.508 118.67 193.48 118.574 193.416C118.294 193.24 118.21 192.868 118.386 192.588L126.238 180.164C126.414 179.884 126.79 179.8 127.066 179.976C127.346 180.152 127.43 180.524 127.254 180.804L119.402 193.228C119.29 193.412 119.094 193.508 118.894 193.508ZM114.894 193.508C114.786 193.508 114.67 193.48 114.574 193.416C114.294 193.24 114.21 192.868 114.386 192.588L122.238 180.164C122.414 179.884 122.794 179.8 123.066 179.976C123.346 180.152 123.43 180.524 123.254 180.804L115.402 193.228C115.29 193.412 115.094 193.508 114.894 193.508ZM110.894 193.508C110.786 193.508 110.67 193.48 110.574 193.416C110.294 193.24 110.21 192.868 110.386 192.588L118.238 180.164C118.414 179.884 118.794 179.8 119.066 179.976C119.346 180.152 119.43 180.524 119.254 180.804L111.402 193.228C111.29 193.412 111.094 193.508 110.894 193.508ZM106.894 193.508C106.786 193.508 106.67 193.48 106.574 193.416C106.294 193.24 106.21 192.868 106.386 192.588L111.578 184.376C111.754 184.096 112.13 184.012 112.406 184.188C112.686 184.364 112.77 184.736 112.594 185.016L107.402 193.228C107.29 193.412 107.094 193.508 106.894 193.508ZM102.894 193.508C102.786 193.508 102.67 193.48 102.574 193.416C102.294 193.24 102.21 192.868 102.386 192.588L105.642 187.432C105.818 187.148 106.194 187.072 106.47 187.244C106.75 187.42 106.834 187.792 106.658 188.072L103.402 193.228C103.29 193.412 103.094 193.508 102.894 193.508Z" fill="#472B29"/>
<path d="M97.634 71.3323C75.77 40.1043 45.198 54.3123 45.198 84.2243C45.198 111.644 81.754 134.992 97.634 143.844C113.514 134.992 150.07 111.644 150.07 84.2243C150.074 54.3123 119.498 40.1043 97.634 71.3323Z" fill="#EE3E54"/>
<path d="M96.3641 145.203C96.0281 145.203 95.6921 145.119 95.3921 144.951C79.3121 135.991 41.9241 112.083 41.9241 83.5833C41.9241 68.2993 49.6321 55.9993 61.5561 52.2353C73.3761 48.4993 86.2401 54.1233 96.3641 67.3113C106.48 54.1273 119.34 48.5033 131.168 52.2353C143.092 55.9953 150.8 68.2993 150.8 83.5833C150.8 112.079 113.408 135.991 97.3361 144.947C97.0361 145.119 96.7001 145.203 96.3641 145.203ZM68.8321 55.1153C66.7801 55.1153 64.7481 55.4234 62.7561 56.0514C52.5281 59.2754 45.9201 70.0833 45.9201 83.5833C45.9201 109.419 80.4201 131.907 96.3601 140.911C112.3 131.907 146.796 109.419 146.796 83.5833C146.796 70.0833 140.188 59.2754 129.96 56.0514C119.248 52.6714 107.284 58.5713 97.9961 71.8393C97.2521 72.9113 95.4641 72.9113 94.7241 71.8393C87.1601 61.0393 77.8281 55.1153 68.8321 55.1153Z" fill="#472B29"/>
</svg>
